<svg xmlns="http://www.w3.org/2000/svg" version="1.1" xmlns:xlink="http://www.w3.org/1999/xlink" width="1500" height="1500" viewBox="0 0 1500 1500"><rect width="1500" height="1500" x="0" y="0" id="background" stroke="transparent" fill="#0b0b0b"></rect><svg xml:space="preserve" width="1000" height="1000" data-version="2" data-id="lg_xM6O3tjzBX01b6PV3I" viewBox="0 0 533 87" x="250" y="250"><rect width="100%" height="100%" fill="transparent"></rect><path fill="#9e9e9e" d="M408.632 15.053c0 2.022 1.589 3.61 3.61 3.61s3.61-1.588 3.61-3.61-1.588-3.61-3.61-3.61-3.61 1.588-3.61 3.61m5.92 0c0 1.3-1.01 2.31-2.31 2.31a2.28 2.28 0 0 1-2.31-2.31c0-1.3 1.01-2.31 2.31-2.31s2.31 1.01 2.31 2.31m77.4 4.043h-68.013v20.36h68.012zm-1.3 19.061h-65.414V20.396h65.414zm-66.713 17.761h18.483V41.911h-18.483zm1.3-12.707h15.739v11.408h-15.74zm21.37-.433h44.765v1.3H446.61zm0 3.465h44.765v1.3H446.61zm0 3.61h44.765v1.3H446.61zm0 3.61h25.993v1.3H446.61zm-7.364 27.292h37.689v3.61h-37.689z"></path><path fill="#9e9e9e" d="M405.022 8.555h106.134v15.74h2.6V8.555c0-4.043-3.322-7.364-7.365-7.364h-96.748c-4.043 0-7.364 3.32-7.364 7.364v54.872c0 4.043 3.321 7.364 7.364 7.364h34.8l-.577 8.376h2.6l.721-8.376h21.805l.722 8.376h2.599l-.722-8.376h22.96v-8.664h-89.529z"></path><path fill="#9e9e9e" d="M517.799 25.594h-13.285c-4.765 0-8.52 3.899-8.52 8.52V74.69c0 4.765 3.9 8.52 8.52 8.52h13.285c4.765 0 8.52-3.899 8.52-8.52V34.114c0-4.621-3.9-8.52-8.52-8.52m-20.216 46.93V34.691h27.003v37.833zm11.119-42.742h4.765c.433 0 .866.433.866.866s-.433.867-.866.867h-4.765c-.434 0-.867-.434-.867-.867s.289-.866.867-.866m4.91 47.363c0 1.01-.867 1.877-1.878 1.877h-1.01c-1.012 0-1.878-.866-1.878-1.877 0-1.01.866-1.877 1.877-1.877h1.011c.866-.145 1.877.722 1.877 1.877"></path><path fill="#9e9e9e" d="M498.594 51.009h24.836v-9.675h-24.836zm1.155-8.52h22.382v7.22h-22.382zm10.83 9.097h-12.13v9.675h12.13zm-1.155 8.52h-9.53v-7.22h9.53zm1.877 1.155h12.13v-9.675H511.3zm1.3-8.375h9.53v7.22h-9.53zm-1.733-12.419c1.444 0 2.599-1.155 2.599-2.599s-1.3-2.599-2.6-2.599-2.599 1.155-2.599 2.6 1.156 2.598 2.6 2.598m0-3.898c.722 0 1.3.577 1.3 1.3s-.578 1.299-1.3 1.299-1.3-.578-1.3-1.3.433-1.3 1.3-1.3M498.594 62.56h24.836v1.3h-24.836zm0 2.454h24.836v1.3h-24.836zm0 2.31h24.836v1.3h-24.836zm0 2.311h14.584v1.3h-14.584z"></path><path fill="#ececec" d="M30.208 78.875q-10.7 0-17.58-5.09-6.87-5.09-7.39-14.57h18.18q.26 3.22 1.91 4.7 1.66 1.48 4.27 1.48 2.35 0 3.87-1.18 1.52-1.17 1.52-3.26 0-2.7-2.52-4.18-2.52-1.48-8.18-3.3-6-2-9.7-3.87-3.7-1.87-6.44-5.48-2.74-3.62-2.74-9.44 0-5.92 2.96-10.14 2.96-4.22 8.18-6.39 5.22-2.18 11.83-2.18 10.7 0 17.1 5 6.39 5.01 6.82 14.05h-18.53q-.08-2.78-1.69-4.17-1.61-1.39-4.14-1.39-1.91 0-3.13 1.13t-1.22 3.22q0 1.74 1.35 3t3.35 2.17q2 .92 5.92 2.31 5.83 2 9.61 3.96 3.79 1.95 6.53 5.48 2.74 3.52 2.74 8.91 0 5.49-2.74 9.84t-7.92 6.87q-5.18 2.52-12.22 2.52"></path><rect width="47.85" height="62.9" x="-23.93" y="-31.45" fill="none" rx="0" ry="0" transform="translate(29.66 47.92)"></rect><path fill="#ececec" d="M54.387 53.825q0-7.57 2.74-13.23 2.74-5.65 7.49-8.7 4.74-3.04 10.57-3.04 5.04 0 8.7 2 3.65 2 5.65 5.39v-6.78h17.05v48.8h-17.05v-6.78q-2 3.39-5.7 5.39-3.7 2-8.65 2-5.83 0-10.57-3.04-4.75-3.05-7.49-8.75t-2.74-13.26m35.15 0q0-4.7-2.57-7.4-2.56-2.7-6.3-2.7-3.83 0-6.35 2.66-2.53 2.65-2.53 7.44 0 4.69 2.53 7.43 2.52 2.74 6.35 2.74 3.74 0 6.3-2.69 2.57-2.7 2.57-7.48"></path><rect width="52.2" height="50.02" x="-26.1" y="-25.01" fill="none" rx="0" ry="0" transform="translate(80.99 54.37)"></rect><path fill="#ececec" d="M129.558 38.075q2.87-4.18 6.96-6.61 4.09-2.44 8.79-2.44v18.18h-4.79q-5.57 0-8.26 2.18-2.7 2.17-2.7 7.57v21.31h-17.05v-48.8h17.05z"></path><rect width="32.8" height="49.24" x="-16.4" y="-24.62" fill="none" rx="0" ry="0" transform="translate(129.4 54.15)"></rect><path fill="#ececec" d="m170.967 62.175 9.14-32.71h18.18l-16.79 48.8h-21.23l-16.79-48.8h18.18Z"></path><rect width="54.81" height="48.8" x="-27.41" y="-24.4" fill="none" rx="0" ry="0" transform="translate(171.38 54.37)"></rect><path fill="#ececec" d="M217.257 36.245q2-3.48 5.65-5.44 3.66-1.95 8.61-1.95 5.83 0 10.58 3.04 4.74 3.05 7.48 8.7 2.74 5.66 2.74 13.23 0 7.56-2.74 13.26t-7.48 8.75q-4.75 3.04-10.58 3.04-4.95 0-8.61-1.96-3.65-1.95-5.65-5.43v6.78h-17.06v-64.38h17.06zm17.74 17.58q0-4.79-2.56-7.44-2.57-2.66-6.31-2.66-3.74 0-6.31 2.7-2.56 2.7-2.56 7.4 0 4.78 2.56 7.48 2.57 2.69 6.31 2.69 3.74 0 6.31-2.74 2.56-2.74 2.56-7.43"></path><rect width="52.12" height="64.99" x="-26.06" y="-32.49" fill="none" rx="0" ry="0" transform="translate(226.76 46.88)"></rect><path fill="#ececec" d="M264.147 24.935q-4.52 0-7.26-2.48-2.75-2.48-2.75-6.22 0-3.83 2.75-6.35 2.74-2.52 7.26-2.52 4.44 0 7.18 2.52 2.74 2.52 2.74 6.35 0 3.74-2.74 6.22-2.74 2.48-7.18 2.48m8.44 4.53v48.8h-17.05v-48.8Z"></path><rect width="19.93" height="70.9" x="-9.96" y="-35.45" fill="none" rx="0" ry="0" transform="translate(264.6 43.31)"></rect><path fill="#ececec" d="M295.558 13.885v64.38h-17.06v-64.38Z"></path><rect width="17.06" height="64.38" x="-8.53" y="-32.19" fill="none" rx="0" ry="0" transform="translate(287.53 46.58)"></rect><path fill="#ececec" d="M318.518 13.885v64.38h-17.05v-64.38Z"></path><rect width="17.05" height="64.38" x="-8.53" y="-32.19" fill="none" rx="0" ry="0" transform="translate(310.5 46.58)"></rect><circle r="6.2" fill="#ececec" transform="translate(364.72 44.57)scale(1.6196)"></circle></svg></svg>